<svg xmlns:dc="http://purl.org/dc/elements/1.1/" xmlns:cc="http://creativecommons.org/ns#" xmlns:rdf="http://www.w3.org/1999/02/22-rdf-syntax-ns#" xmlns:svg="http://www.w3.org/2000/svg" xmlns="http://www.w3.org/2000/svg" xmlns:sodipodi="http://sodipodi.sourceforge.net/DTD/sodipodi-0.dtd" xmlns:inkscape="http://www.inkscape.org/namespaces/inkscape" width="134.6" height="33" inkscape:label="Pozad&#237;" version="1.1" inkscape:version="0.48.4 r9939"><style>.style0{fill:	#ffffff;fill-rule:	nonzero;}.style1{fill:	#f2511a;fill-rule:	nonzero;}.style2{fill:	#fbbc09;fill-rule:	nonzero;}</style><defs/><metadata><rdf:RDF><cc:Work rdf:about=""><dc:format>image/svg+xml</dc:format><dc:type rdf:resource="http://purl.org/dc/dcmitype/StillImage"/><dc:title/></cc:Work></rdf:RDF></metadata><g inkscape:label="Vrstva 1" inkscape:groupmode="layer" transform="translate(-306.99212,-153.20958)"><g transform="matrix(0.06772058,0,0,0.06772058,347.46836,153.20958)"><path d="m 1351.5 300.3 -7.6 0 0 -2.9 18.6 0 0 2.9 -7.6 0 0 22.4 -3.3 0 0 -22.4" inkscape:connector-curvature="0" class="style0"/><path d="m 1365.5 297.5 4.3 0 7.9 20.5 7.6 -20.5 4.3 0 0 25.3 -3.3 0 0 -20.4 0 0 -7.4 20.4 -2.7 0 -7.2 -20.4 -0.2 0 0 20.4 -3.3 0 0 -25.3" inkscape:connector-curvature="0" class="style0"/><path d="M -399.9 91.6 -300.2 31.7 -361.4 0 -461.1 59.9 l 61.2 31.7" inkscape:connector-curvature="0" class="style1"/><path d="m -308.1 139.4 99.6 -59.9 -61.2 -31.7 -99.6 59.9 61.2 31.8" inkscape:connector-curvature="0" class="style2"/><path d="m -216.3 187.1 99.6 -59.9 -61.2 -31.8 -99.6 59.9 61.2 31.8" inkscape:connector-curvature="0" class="style1"/><path d="m -353.8 269.6 99.6 -59.9 -61 -31.7 -99.6 59.9 61 31.7" inkscape:connector-curvature="0" class="style2"/><path d="m -262 317.4 99.6 -59.9 -61 -31.8 -99.6 59.9 61 31.8" inkscape:connector-curvature="0" class="style1"/><path d="m -491 352.2 99.6 -59.9 -61.2 -31.8 -99.4 59.9 61 31.8" inkscape:connector-curvature="0" class="style1"/><path d="m -399.2 399.9 99.6 -59.9 -61.2 -31.7 -99.4 59.9 61 31.7" inkscape:connector-curvature="0" class="style2"/><path d="m -536.5 482.5 99.4 -59.9 -61 -31.8 -99.6 59.9 61.2 31.8" inkscape:connector-curvature="0" class="style1"/><path d="m -88.8 338.1 -27.9 0 6.4 -32.5 27.7 0 3.5 -17.6 c 3.9 -20.3 15.9 -49.5 61 -49.5 11.6 0 27.5 1.7 33.7 4.1 l -7.4 38.6 -14.9 0 c -9.1 0 -18.8 2.7 -20.7 12.9 l -2.3 11.5 32.5 0 -6.2 32.5 -32.7 0 -27.9 144.4 -52.7 0 27.9 -144.4" inkscape:connector-curvature="0" class="style0"/><path d="m 27.2 302.2 52.9 0 -3.5 18.3 c 13.6 -10.8 34.1 -17.6 53.1 -19 l -8.7 46.8 -6 0.7 c -32.2 3.7 -45.7 9.1 -49.6 29.1 l -20.3 104.4 -52.9 0 34.9 -180.3" inkscape:connector-curvature="0" class="style0"/><path d="m 994.2 394.8 -37.6 10.1 c -13.9 3.7 -27.1 8.8 -30 23.4 -2.7 14.2 8.1 20.4 20.9 20.4 20.7 0 38.9 -14 44.2 -41.4 l 2.5 -12.5 z m 41.1 50.2 c -2.5 12.5 -4.8 26.4 -2.7 37.6 l -48.8 0 c -0.8 -6.1 -0.6 -12.6 0.2 -18.7 l -0.6 0 c -11.6 14.2 -39.7 23.4 -58.7 23.4 -34.5 0 -56.6 -18.9 -50 -53.5 8.5 -43.3 46.3 -58.6 105.4 -66.8 l 19.8 -2.7 2.9 -14.9 c 2.7 -13.6 -7 -19.4 -21.3 -19.4 -17 0 -26.3 6.1 -32.5 24.1 l -50.9 0 c 11.8 -51.9 60.8 -56.6 85.2 -56.6 49.2 0 77.7 11.5 70.3 52.2 l -18.4 95.3" inkscape:connector-curvature="0" class="style0"/><path d="m 1066.6 482.5 46.7 -241.3 52.9 0 -46.7 241.3 -52.9 0" inkscape:connector-curvature="0" class="style0"/><path d="m 224.4 336.1 c 15.1 0 32.7 8.1 29.1 34.5 l -71.7 0 c 6.8 -23.7 27.3 -34.5 42.6 -34.5 z M 206.6 448.6 c -17 0 -36.8 -10.9 -30.6 -45.5 l 124 0 c 10.5 -55.6 -2.1 -105.7 -67.8 -105.7 -55 0 -95.7 36.6 -107.9 100.3 -9.9 50.9 15.1 89.4 71.1 89.4 40.3 0 72.1 -15.9 97.2 -49.8 l -37 -19.2 c -18.6 20.7 -29.8 30.4 -49 30.4" inkscape:connector-curvature="0" class="style0"/><path d="m 421.8 336.1 c 15.3 0 32.7 8.1 29.4 34.5 l -71.9 0 c 7 -23.7 27.5 -34.5 42.6 -34.5 z m -17.6 112.5 c -17 0 -37 -10.9 -30.6 -45.5 l 124 0 c 10.5 -55.6 -2.3 -105.7 -68 -105.7 -54.8 0 -95.5 36.6 -107.7 100.3 -9.9 50.9 15.1 89.4 71.1 89.4 40.3 0 72.1 -15.9 97 -49.8 L 453.1 418.2 c -18.6 20.7 -29.6 30.4 -48.8 30.4" inkscape:connector-curvature="0" class="style0"/><path d="m 1260.3 336.1 c 15.3 0 32.7 8.1 29.4 34.5 l -71.9 0 c 7 -23.7 27.5 -34.5 42.6 -34.5 z m -17.6 112.5 c -17 0 -37 -10.9 -30.6 -45.5 l 124 0 c 10.3 -55.6 -2.3 -105.7 -68 -105.7 -54.8 0 -95.5 36.6 -107.9 100.3 -9.7 50.9 15.3 89.4 71.3 89.4 40.3 0 72.1 -15.9 97 -49.8 l -37 -19.2 c -18.6 20.7 -29.6 30.4 -48.8 30.4" inkscape:connector-curvature="0" class="style0"/><path d="m 822.7 421.4 c -12.2 19.4 -25.8 25.2 -42 25.2 -28.1 0 -36.4 -23.4 -30.4 -54.2 6 -30.9 21.3 -54.3 51.5 -54.3 8.1 0 25.2 5.1 29.8 27.2 l 43.2 -26 c -11.6 -29.8 -38.2 -41.8 -71.5 -41.8 -49.8 0 -96.3 35.3 -107.9 94.9 -11.6 60.7 19 94.8 72.8 94.8 34.7 0 67.8 -18.9 89.5 -47.6 l -34.9 -18.2" inkscape:connector-curvature="0" class="style0"/><path d="m 579.2 350 c 1.9 -9.1 12.2 -13.9 25.4 -13.9 16.3 0 37 6.5 45.5 18.5 l 44.4 -26.7 c -24 -20.9 -53.7 -30.4 -79.8 -30.4 -36.6 0 -79.6 17.6 -88.5 63 -12.2 64 98.8 41.7 93.4 69.8 -3.3 16.3 -23.6 18.3 -32.5 18.3 -24 0 -38.7 -9.8 -51.7 -25.2 l -40.9 24.6 c 20.7 27.6 46.1 39.1 83.5 39.1 39.3 0 84.5 -16.9 93.6 -64.3 13.2 -67.5 -98.6 -42 -92.6 -72.9" inkscape:connector-curvature="0" class="style0"/></g></g></svg>